<mxfile host="app.diagrams.net" modified="2021-07-31T10:59:07.618Z" agent="5.0 (Windows NT 10.0; Win64; x64) AppleWebKit/537.36 (KHTML, like Gecko) Chrome/92.0.4515.107 Safari/537.36" etag="NsoQZ4MT0_x0UFlPsqNw" version="14.9.3" type="github">
  <diagram id="MwDUxTF5_eoWtpGkGqk1" name="第 1 页">
    <mxGraphModel dx="1483" dy="1154" grid="1" gridSize="10" guides="1" tooltips="1" connect="1" arrows="1" fold="1" page="0" pageScale="1" pageWidth="827" pageHeight="1169" background="none" math="0" shadow="0">
      <root>
        <mxCell id="0" />
        <mxCell id="1" parent="0" />
        <mxCell id="ns9qtZWAEe_BUJqyGrFR-28" style="edgeStyle=orthogonalEdgeStyle;rounded=0;orthogonalLoop=1;jettySize=auto;html=1;entryX=0;entryY=0.5;entryDx=0;entryDy=0;" parent="1" source="ns9qtZWAEe_BUJqyGrFR-1" target="ns9qtZWAEe_BUJqyGrFR-27" edge="1">
          <mxGeometry relative="1" as="geometry" />
        </mxCell>
        <mxCell id="ns9qtZWAEe_BUJqyGrFR-30" style="edgeStyle=orthogonalEdgeStyle;rounded=0;orthogonalLoop=1;jettySize=auto;html=1;entryX=0;entryY=0.5;entryDx=0;entryDy=0;" parent="1" source="ns9qtZWAEe_BUJqyGrFR-1" target="ns9qtZWAEe_BUJqyGrFR-29" edge="1">
          <mxGeometry relative="1" as="geometry" />
        </mxCell>
        <mxCell id="ns9qtZWAEe_BUJqyGrFR-1" value="邮豆中心" style="rounded=0;whiteSpace=wrap;html=1;" parent="1" vertex="1">
          <mxGeometry x="70" y="270" width="130" height="50" as="geometry" />
        </mxCell>
        <mxCell id="ns9qtZWAEe_BUJqyGrFR-2" value="邮豆小店（优先显示）" style="rounded=0;whiteSpace=wrap;html=1;" parent="1" vertex="1">
          <mxGeometry x="790" y="440" width="120" height="60" as="geometry" />
        </mxCell>
        <mxCell id="ns9qtZWAEe_BUJqyGrFR-5" value="兑换记录" style="rounded=0;whiteSpace=wrap;html=1;" parent="1" vertex="1">
          <mxGeometry x="790" y="350" width="120" height="60" as="geometry" />
        </mxCell>
        <mxCell id="NEipg8XcuFxu_SBBv3g5-26" style="edgeStyle=orthogonalEdgeStyle;rounded=0;orthogonalLoop=1;jettySize=auto;html=1;entryX=0;entryY=0.5;entryDx=0;entryDy=0;" edge="1" parent="1" source="ns9qtZWAEe_BUJqyGrFR-13" target="NEipg8XcuFxu_SBBv3g5-21">
          <mxGeometry relative="1" as="geometry" />
        </mxCell>
        <mxCell id="NEipg8XcuFxu_SBBv3g5-27" style="edgeStyle=orthogonalEdgeStyle;rounded=0;orthogonalLoop=1;jettySize=auto;html=1;entryX=0;entryY=0.5;entryDx=0;entryDy=0;" edge="1" parent="1" source="ns9qtZWAEe_BUJqyGrFR-13" target="NEipg8XcuFxu_SBBv3g5-23">
          <mxGeometry relative="1" as="geometry" />
        </mxCell>
        <mxCell id="ns9qtZWAEe_BUJqyGrFR-13" value="完成状态" style="rounded=0;whiteSpace=wrap;html=1;" parent="1" vertex="1">
          <mxGeometry x="480" y="1275" width="120" height="60" as="geometry" />
        </mxCell>
        <mxCell id="ns9qtZWAEe_BUJqyGrFR-18" value="明细界面" style="whiteSpace=wrap;html=1;rounded=0;" parent="1" vertex="1">
          <mxGeometry x="927" y="80" width="120" height="60" as="geometry" />
        </mxCell>
        <mxCell id="ns9qtZWAEe_BUJqyGrFR-21" value="兑换记录" style="rounded=0;whiteSpace=wrap;html=1;" parent="1" vertex="1">
          <mxGeometry x="880" y="160" width="120" height="60" as="geometry" />
        </mxCell>
        <mxCell id="ns9qtZWAEe_BUJqyGrFR-25" value="界面包含及其跳转关系" style="text;html=1;align=center;verticalAlign=middle;resizable=0;points=[];autosize=1;strokeColor=none;" parent="1" vertex="1">
          <mxGeometry x="210" y="270" width="140" height="20" as="geometry" />
        </mxCell>
        <mxCell id="ns9qtZWAEe_BUJqyGrFR-41" style="edgeStyle=orthogonalEdgeStyle;rounded=0;orthogonalLoop=1;jettySize=auto;html=1;entryX=0;entryY=0.5;entryDx=0;entryDy=0;" parent="1" source="ns9qtZWAEe_BUJqyGrFR-27" target="ns9qtZWAEe_BUJqyGrFR-38" edge="1">
          <mxGeometry relative="1" as="geometry" />
        </mxCell>
        <mxCell id="ns9qtZWAEe_BUJqyGrFR-42" style="edgeStyle=orthogonalEdgeStyle;rounded=0;orthogonalLoop=1;jettySize=auto;html=1;entryX=0;entryY=0.5;entryDx=0;entryDy=0;" parent="1" source="ns9qtZWAEe_BUJqyGrFR-27" target="ns9qtZWAEe_BUJqyGrFR-39" edge="1">
          <mxGeometry relative="1" as="geometry" />
        </mxCell>
        <mxCell id="ns9qtZWAEe_BUJqyGrFR-27" value="上部分" style="whiteSpace=wrap;html=1;" parent="1" vertex="1">
          <mxGeometry x="500" y="100" width="120" height="60" as="geometry" />
        </mxCell>
        <mxCell id="ns9qtZWAEe_BUJqyGrFR-32" style="edgeStyle=orthogonalEdgeStyle;rounded=0;orthogonalLoop=1;jettySize=auto;html=1;entryX=0;entryY=0.5;entryDx=0;entryDy=0;" parent="1" source="ns9qtZWAEe_BUJqyGrFR-29" target="ns9qtZWAEe_BUJqyGrFR-5" edge="1">
          <mxGeometry relative="1" as="geometry" />
        </mxCell>
        <mxCell id="ns9qtZWAEe_BUJqyGrFR-33" style="edgeStyle=orthogonalEdgeStyle;rounded=0;orthogonalLoop=1;jettySize=auto;html=1;" parent="1" source="ns9qtZWAEe_BUJqyGrFR-29" target="ns9qtZWAEe_BUJqyGrFR-2" edge="1">
          <mxGeometry relative="1" as="geometry" />
        </mxCell>
        <mxCell id="ns9qtZWAEe_BUJqyGrFR-29" value="下部分" style="whiteSpace=wrap;html=1;" parent="1" vertex="1">
          <mxGeometry x="500" y="400" width="120" height="60" as="geometry" />
        </mxCell>
        <mxCell id="ns9qtZWAEe_BUJqyGrFR-31" value="跳转" style="text;html=1;align=center;verticalAlign=middle;resizable=0;points=[];autosize=1;strokeColor=none;" parent="1" vertex="1">
          <mxGeometry x="810" y="40" width="40" height="20" as="geometry" />
        </mxCell>
        <mxCell id="ns9qtZWAEe_BUJqyGrFR-34" value="返回" style="whiteSpace=wrap;html=1;" parent="1" vertex="1">
          <mxGeometry x="927" y="-20" width="120" height="60" as="geometry" />
        </mxCell>
        <mxCell id="ns9qtZWAEe_BUJqyGrFR-43" style="edgeStyle=orthogonalEdgeStyle;rounded=0;orthogonalLoop=1;jettySize=auto;html=1;" parent="1" source="ns9qtZWAEe_BUJqyGrFR-38" target="ns9qtZWAEe_BUJqyGrFR-34" edge="1">
          <mxGeometry relative="1" as="geometry" />
        </mxCell>
        <mxCell id="ns9qtZWAEe_BUJqyGrFR-44" style="edgeStyle=orthogonalEdgeStyle;rounded=0;orthogonalLoop=1;jettySize=auto;html=1;entryX=0;entryY=0.5;entryDx=0;entryDy=0;" parent="1" source="ns9qtZWAEe_BUJqyGrFR-38" target="ns9qtZWAEe_BUJqyGrFR-18" edge="1">
          <mxGeometry relative="1" as="geometry" />
        </mxCell>
        <mxCell id="ns9qtZWAEe_BUJqyGrFR-38" value="顶部工具栏" style="whiteSpace=wrap;html=1;" parent="1" vertex="1">
          <mxGeometry x="690" y="30" width="120" height="60" as="geometry" />
        </mxCell>
        <mxCell id="ns9qtZWAEe_BUJqyGrFR-45" style="edgeStyle=orthogonalEdgeStyle;rounded=0;orthogonalLoop=1;jettySize=auto;html=1;" parent="1" source="ns9qtZWAEe_BUJqyGrFR-39" target="ns9qtZWAEe_BUJqyGrFR-21" edge="1">
          <mxGeometry relative="1" as="geometry" />
        </mxCell>
        <mxCell id="ns9qtZWAEe_BUJqyGrFR-39" value="邮豆展示" style="whiteSpace=wrap;html=1;" parent="1" vertex="1">
          <mxGeometry x="690" y="160" width="120" height="60" as="geometry" />
        </mxCell>
        <mxCell id="ns9qtZWAEe_BUJqyGrFR-46" value="跳转" style="text;html=1;align=center;verticalAlign=middle;resizable=0;points=[];autosize=1;strokeColor=none;" parent="1" vertex="1">
          <mxGeometry x="830" y="170" width="40" height="20" as="geometry" />
        </mxCell>
        <mxCell id="ns9qtZWAEe_BUJqyGrFR-47" value="包含" style="text;html=1;align=center;verticalAlign=middle;resizable=0;points=[];autosize=1;strokeColor=none;" parent="1" vertex="1">
          <mxGeometry x="610" y="110" width="40" height="20" as="geometry" />
        </mxCell>
        <mxCell id="ns9qtZWAEe_BUJqyGrFR-48" value="二选一展示" style="text;html=1;align=center;verticalAlign=middle;resizable=0;points=[];autosize=1;strokeColor=none;" parent="1" vertex="1">
          <mxGeometry x="620" y="410" width="80" height="20" as="geometry" />
        </mxCell>
        <mxCell id="ns9qtZWAEe_BUJqyGrFR-49" value="用户操作" style="text;html=1;align=center;verticalAlign=middle;resizable=0;points=[];autosize=1;strokeColor=none;" parent="1" vertex="1">
          <mxGeometry x="180" y="770" width="60" height="20" as="geometry" />
        </mxCell>
        <mxCell id="NEipg8XcuFxu_SBBv3g5-3" style="edgeStyle=orthogonalEdgeStyle;rounded=0;orthogonalLoop=1;jettySize=auto;html=1;entryX=0;entryY=0.5;entryDx=0;entryDy=0;" edge="1" parent="1" source="NEipg8XcuFxu_SBBv3g5-1" target="NEipg8XcuFxu_SBBv3g5-2">
          <mxGeometry relative="1" as="geometry" />
        </mxCell>
        <mxCell id="NEipg8XcuFxu_SBBv3g5-7" style="edgeStyle=orthogonalEdgeStyle;rounded=0;orthogonalLoop=1;jettySize=auto;html=1;" edge="1" parent="1" source="NEipg8XcuFxu_SBBv3g5-1">
          <mxGeometry relative="1" as="geometry">
            <mxPoint x="210" y="790" as="targetPoint" />
          </mxGeometry>
        </mxCell>
        <mxCell id="NEipg8XcuFxu_SBBv3g5-8" style="edgeStyle=orthogonalEdgeStyle;rounded=0;orthogonalLoop=1;jettySize=auto;html=1;" edge="1" parent="1" source="NEipg8XcuFxu_SBBv3g5-1" target="NEipg8XcuFxu_SBBv3g5-6">
          <mxGeometry relative="1" as="geometry" />
        </mxCell>
        <mxCell id="NEipg8XcuFxu_SBBv3g5-1" value="&lt;span&gt;邮豆中心&lt;/span&gt;" style="whiteSpace=wrap;html=1;" vertex="1" parent="1">
          <mxGeometry x="60" y="760" width="120" height="60" as="geometry" />
        </mxCell>
        <mxCell id="NEipg8XcuFxu_SBBv3g5-5" style="edgeStyle=orthogonalEdgeStyle;rounded=0;orthogonalLoop=1;jettySize=auto;html=1;" edge="1" parent="1" source="NEipg8XcuFxu_SBBv3g5-2" target="NEipg8XcuFxu_SBBv3g5-4">
          <mxGeometry relative="1" as="geometry" />
        </mxCell>
        <mxCell id="NEipg8XcuFxu_SBBv3g5-2" value="上滑" style="whiteSpace=wrap;html=1;" vertex="1" parent="1">
          <mxGeometry x="320" y="670" width="120" height="60" as="geometry" />
        </mxCell>
        <mxCell id="NEipg8XcuFxu_SBBv3g5-4" value="我的邮豆字体，明细按钮消失。邮豆数目字样压缩" style="text;html=1;align=center;verticalAlign=middle;resizable=0;points=[];autosize=1;strokeColor=none;" vertex="1" parent="1">
          <mxGeometry x="576" y="690" width="280" height="20" as="geometry" />
        </mxCell>
        <mxCell id="NEipg8XcuFxu_SBBv3g5-11" style="edgeStyle=orthogonalEdgeStyle;rounded=0;orthogonalLoop=1;jettySize=auto;html=1;entryX=0;entryY=0.5;entryDx=0;entryDy=0;" edge="1" parent="1" source="NEipg8XcuFxu_SBBv3g5-6" target="NEipg8XcuFxu_SBBv3g5-10">
          <mxGeometry relative="1" as="geometry" />
        </mxCell>
        <mxCell id="NEipg8XcuFxu_SBBv3g5-16" style="edgeStyle=orthogonalEdgeStyle;rounded=0;orthogonalLoop=1;jettySize=auto;html=1;entryX=0;entryY=0.5;entryDx=0;entryDy=0;" edge="1" parent="1" source="NEipg8XcuFxu_SBBv3g5-6" target="NEipg8XcuFxu_SBBv3g5-15">
          <mxGeometry relative="1" as="geometry" />
        </mxCell>
        <mxCell id="NEipg8XcuFxu_SBBv3g5-6" value="点击" style="whiteSpace=wrap;html=1;" vertex="1" parent="1">
          <mxGeometry x="320" y="820" width="120" height="60" as="geometry" />
        </mxCell>
        <mxCell id="NEipg8XcuFxu_SBBv3g5-13" style="edgeStyle=orthogonalEdgeStyle;rounded=0;orthogonalLoop=1;jettySize=auto;html=1;" edge="1" parent="1" source="NEipg8XcuFxu_SBBv3g5-10" target="NEipg8XcuFxu_SBBv3g5-12">
          <mxGeometry relative="1" as="geometry" />
        </mxCell>
        <mxCell id="NEipg8XcuFxu_SBBv3g5-10" value="邮豆小店，邮豆任务可选框" style="whiteSpace=wrap;html=1;" vertex="1" parent="1">
          <mxGeometry x="550" y="750" width="120" height="60" as="geometry" />
        </mxCell>
        <mxCell id="NEipg8XcuFxu_SBBv3g5-12" value="&lt;span&gt;邮豆小店，邮豆任务界面间切换&lt;br&gt;&lt;/span&gt;" style="text;html=1;align=center;verticalAlign=middle;resizable=0;points=[];autosize=1;strokeColor=none;" vertex="1" parent="1">
          <mxGeometry x="740" y="770" width="180" height="20" as="geometry" />
        </mxCell>
        <mxCell id="NEipg8XcuFxu_SBBv3g5-18" style="edgeStyle=orthogonalEdgeStyle;rounded=0;orthogonalLoop=1;jettySize=auto;html=1;" edge="1" parent="1" source="NEipg8XcuFxu_SBBv3g5-15" target="NEipg8XcuFxu_SBBv3g5-17">
          <mxGeometry relative="1" as="geometry" />
        </mxCell>
        <mxCell id="NEipg8XcuFxu_SBBv3g5-15" value="明细，兑换记录，返回键" style="whiteSpace=wrap;html=1;" vertex="1" parent="1">
          <mxGeometry x="550" y="850" width="120" height="60" as="geometry" />
        </mxCell>
        <mxCell id="NEipg8XcuFxu_SBBv3g5-17" value="跳转到对应界面" style="text;html=1;align=center;verticalAlign=middle;resizable=0;points=[];autosize=1;strokeColor=none;" vertex="1" parent="1">
          <mxGeometry x="740" y="870" width="100" height="20" as="geometry" />
        </mxCell>
        <mxCell id="NEipg8XcuFxu_SBBv3g5-21" value="完成" style="whiteSpace=wrap;html=1;" vertex="1" parent="1">
          <mxGeometry x="792.5" y="1160" width="120" height="60" as="geometry" />
        </mxCell>
        <mxCell id="NEipg8XcuFxu_SBBv3g5-28" style="edgeStyle=orthogonalEdgeStyle;rounded=0;orthogonalLoop=1;jettySize=auto;html=1;entryX=0;entryY=0.5;entryDx=0;entryDy=0;" edge="1" parent="1" source="NEipg8XcuFxu_SBBv3g5-23" target="NEipg8XcuFxu_SBBv3g5-24">
          <mxGeometry relative="1" as="geometry" />
        </mxCell>
        <mxCell id="NEipg8XcuFxu_SBBv3g5-29" style="edgeStyle=orthogonalEdgeStyle;rounded=0;orthogonalLoop=1;jettySize=auto;html=1;entryX=0;entryY=0.5;entryDx=0;entryDy=0;" edge="1" parent="1" source="NEipg8XcuFxu_SBBv3g5-23" target="NEipg8XcuFxu_SBBv3g5-25">
          <mxGeometry relative="1" as="geometry" />
        </mxCell>
        <mxCell id="NEipg8XcuFxu_SBBv3g5-23" value="未完成" style="whiteSpace=wrap;html=1;" vertex="1" parent="1">
          <mxGeometry x="792.5" y="1320" width="120" height="60" as="geometry" />
        </mxCell>
        <mxCell id="NEipg8XcuFxu_SBBv3g5-24" value="签到任务" style="whiteSpace=wrap;html=1;" vertex="1" parent="1">
          <mxGeometry x="962.5" y="1275" width="120" height="60" as="geometry" />
        </mxCell>
        <mxCell id="NEipg8XcuFxu_SBBv3g5-25" value="其他任务" style="whiteSpace=wrap;html=1;" vertex="1" parent="1">
          <mxGeometry x="962.5" y="1370" width="120" height="60" as="geometry" />
        </mxCell>
        <mxCell id="NEipg8XcuFxu_SBBv3g5-30" value="" style="shape=image;verticalLabelPosition=bottom;labelBackgroundColor=#ffffff;verticalAlign=top;aspect=fixed;imageAspect=0;image=data:image/png,iVBORw0KGgoAAAANSUhEUgAAAEEAAAAlCAYAAAAdkoQJAAACfUlEQVRoBe2YP07DMBTGOUUlTsEpuASX6cQlKGtZWdk7dEBsdEgkJFiqMlSJUCRaKdKDL47r9xy3sdMI0dSWqvyzHX+/9/nZ6QXFQheRAUUIMEF0QoSgkkF0QnRCgBPW3yXdva7p5umDrh4Surxf0Gjy/38YJ8aLcWP80OEqrdPh9vnzZES3BQZQoMcueyEk2YauH99OIuJt4u3n0AV9ujghoAJsZDce0jX0aRBOCEN1gB1E6ERpQMCcsSsP+Rp6BQRkz74y/3hZUpr4riAZpbShadCKs6LZtqTZHEeifLnqFDzoFRCwjPQV9TAIC0L9UCHTDBAUaH4eqkFAwHoa2oGqr6Khs+3e47ag8UQJ3ltHPNAi4RSfouv7OlDVExD6XBEOOeHQMx4EE92M0hqg+3mYaN4HzgWEvvIBOm4Vmph12h1jHlU3BP4OnIdOJw1DQNA3+zjyAR7fX3M6IOmad3RJrMY9AkJXJ0wzdyydd7cFvQTUr1aYeUE5mw54X3U/2VTRx3VXFyBAAkJfOQERoizzSrLCxrWohnMwdVh/OwiAA9IMUKOtx7IrIHRfHYy1bAD2tRykXuvr9hYE3VaAmrA2FQSTO1DPf29ixiwgHLtPaA6WTwh7M6TmubCxA0K+/BKboqpHRL52QYoPodoJZjUxAiV0930B4ZgdYxU1rplMhNRAdPLSewobyoJG2t67fkqavReUs6lQ9WU5YLRbaRx9tkyHxo4R7z77bwcdgLP/igSI+H9CbQeAGKojoEv/oQK5IjHq6cCPyBFdN1E+mfkv60AH9NilFQIanP2/zTa1IV57OWGIwrmmCMEnMXJiQz2PTohOUN6OTvh1wg9I+LKs9HK1rwAAAABJRU5ErkJggg==;" vertex="1" parent="1">
          <mxGeometry x="1099" y="1393" width="65" height="37" as="geometry" />
        </mxCell>
        <mxCell id="NEipg8XcuFxu_SBBv3g5-31" value="" style="shape=image;verticalLabelPosition=bottom;labelBackgroundColor=#ffffff;verticalAlign=top;aspect=fixed;imageAspect=0;image=data:image/png,iVBORw0KGgoAAAANSUhEUgAAAEcAAAAeCAYAAAB+MQMgAAACcElEQVRoBe2YP27CMBTGOUWknqKn6CV6GaZeonRN167dGRi6liFIHbogOiBnQG2QkF71JXmJbWzHEFsq1JaQY5w47/vl/XEyodSsBCbWmTRBCY7DCRKcBMdBwDGVPGcsnO3PgR7ft3T/+km3zwXdPC0pm/39H+yEvbAb9kPHKW3Qcx7evi4GxtADAyzo8W1WOIWo6O7l4yI8ZAiKPg9d0DfUjHBwIdxRX/SaxtA3BMgI51o9Rn+40OlqR3AQk/oi48aCVnSg+UJN4LkgWhXyfxua7y2m7nc05QKw2FEpj/n/M3tXDlLgIJuHrkTT9XGFKEVFpc6hEwxIxzCxTg0zMBzotVUxBQ7K3TgvkT1hSRmEUEV5UVG53nRr56IRz71yT+lceT4WHNwbuk1NgYP9gGLoma7Ka6jiqjq0EE6keElFeXcfQatuDqD7cUw40G1qCpyoFapoS6cQlNXH5tAxGQmviwkHuk1NgRM638CDIIqbkoDrkMPMMSTZY7LZhvIiLhzoNrWocOQQqo91C+oQQjUjIiHIeE47F9NzvOBEDasur2hJ2/h/n2s4f8WE4xVWoRNyI0wVCu/owwteIydkBqdew4DqPnApx5peCTl4KWevgCAkYow7cTYwbZWSQ5CvVa5nkON7r1IefBPIFUoWajku199N7mnne+9qxUtryXsmxav4YZzQe28CYVf414fxT3YsANf13q8P/FDTi2dDQinlDCd9snDAwRQAXasHQdfQtxwwMHoOexB6xGSMnbMrD8Sagw5XjpF1e8HBSahiKHfYD2DDdCmwYCfshd2w3/ZpQofC40HP4RP/Y5/gOJ76LzSpjFsh3N7JAAAAAElFTkSuQmCC;" vertex="1" parent="1">
          <mxGeometry x="1096" y="1290" width="71" height="30" as="geometry" />
        </mxCell>
        <mxCell id="NEipg8XcuFxu_SBBv3g5-32" value="" style="shape=image;verticalLabelPosition=bottom;labelBackgroundColor=#ffffff;verticalAlign=top;aspect=fixed;imageAspect=0;image=data:image/png,iVBORw0KGgoAAAANSUhEUgAAADoAAAAZCAYAAABggz2wAAABv0lEQVRYCe1W7bGEIAy8/jtIAzTA2IFXgz2cReRNgsEQxOCN/vCdN3MD8pFkd0PghT/ye/0ITnyA/jelH0UfRW/KwJO6NxWuGbaj6IxjAATo/Uecmq7SxDQAQhhxdtbtTZON8J4RPyMGCDh+9lanOQeobyCvYKc+UMQJIwBGj5FsuO5koDzVZ+86oFM8kAmSMUqdb/YPbfZ8oOywQymrKO07lKKkjAHa2D+/A8IOqDoHsOMJ+C3QLW9HxnaIuhCopJbX1spz8ekpZlY9Jrj2x2eb5pSiDNzuN6Rel7rG0eHPSlFVdIo5Nb7j5Dyg1klDEe+q4muDbBVgeGCt1qoecMYodW0Y8n0dUPEgrQncO2fVfHFnpsIVh4AA9XERl7o9HWiL4fLuQ6yAYDlm19vHAfvR97EhUoOk/slA00sqp5944zRWV4cBlZfRq4nT0Fw1tIBtLOqxulSoVjW3iBO71PpAi5TRWzf6SwD61ZOYL0HSzjowRZJSR5Sjs80EMuDU57ml2lK/IliF6AMlMonpniuC1iyFgYFIcMph7mZVtO1EyDTUxPC+DdLFD+jHRnaydrqArsvv23uA3le77cj/AJfPpgYYuDihAAAAAElFTkSuQmCC;" vertex="1" parent="1">
          <mxGeometry x="930" y="1240" width="69.6" height="30" as="geometry" />
        </mxCell>
        <mxCell id="NEipg8XcuFxu_SBBv3g5-37" style="edgeStyle=orthogonalEdgeStyle;rounded=0;orthogonalLoop=1;jettySize=auto;html=1;entryX=0;entryY=0.5;entryDx=0;entryDy=0;" edge="1" parent="1" source="NEipg8XcuFxu_SBBv3g5-33" target="NEipg8XcuFxu_SBBv3g5-34">
          <mxGeometry relative="1" as="geometry" />
        </mxCell>
        <mxCell id="NEipg8XcuFxu_SBBv3g5-38" style="edgeStyle=orthogonalEdgeStyle;rounded=0;orthogonalLoop=1;jettySize=auto;html=1;entryX=0;entryY=0.5;entryDx=0;entryDy=0;" edge="1" parent="1" source="NEipg8XcuFxu_SBBv3g5-33" target="NEipg8XcuFxu_SBBv3g5-36">
          <mxGeometry relative="1" as="geometry" />
        </mxCell>
        <mxCell id="NEipg8XcuFxu_SBBv3g5-54" style="edgeStyle=orthogonalEdgeStyle;rounded=0;orthogonalLoop=1;jettySize=auto;html=1;entryX=0;entryY=0.5;entryDx=0;entryDy=0;" edge="1" parent="1" source="NEipg8XcuFxu_SBBv3g5-33" target="NEipg8XcuFxu_SBBv3g5-53">
          <mxGeometry relative="1" as="geometry" />
        </mxCell>
        <mxCell id="NEipg8XcuFxu_SBBv3g5-33" value="邮豆任务" style="rounded=1;whiteSpace=wrap;html=1;arcSize=40;" vertex="1" parent="1">
          <mxGeometry x="60" y="1503" width="120" height="60" as="geometry" />
        </mxCell>
        <mxCell id="NEipg8XcuFxu_SBBv3g5-39" style="edgeStyle=orthogonalEdgeStyle;rounded=0;orthogonalLoop=1;jettySize=auto;html=1;" edge="1" parent="1" source="NEipg8XcuFxu_SBBv3g5-34" target="ns9qtZWAEe_BUJqyGrFR-13">
          <mxGeometry relative="1" as="geometry" />
        </mxCell>
        <mxCell id="NEipg8XcuFxu_SBBv3g5-46" style="edgeStyle=orthogonalEdgeStyle;rounded=0;orthogonalLoop=1;jettySize=auto;html=1;entryX=0;entryY=0.5;entryDx=0;entryDy=0;" edge="1" parent="1" source="NEipg8XcuFxu_SBBv3g5-34" target="NEipg8XcuFxu_SBBv3g5-43">
          <mxGeometry relative="1" as="geometry" />
        </mxCell>
        <mxCell id="NEipg8XcuFxu_SBBv3g5-34" value="基础任务" style="whiteSpace=wrap;html=1;" vertex="1" parent="1">
          <mxGeometry x="290" y="1310" width="120" height="60" as="geometry" />
        </mxCell>
        <mxCell id="NEipg8XcuFxu_SBBv3g5-50" style="edgeStyle=orthogonalEdgeStyle;rounded=0;orthogonalLoop=1;jettySize=auto;html=1;" edge="1" parent="1" source="NEipg8XcuFxu_SBBv3g5-36" target="NEipg8XcuFxu_SBBv3g5-49">
          <mxGeometry relative="1" as="geometry" />
        </mxCell>
        <mxCell id="NEipg8XcuFxu_SBBv3g5-36" value="更多任务" style="whiteSpace=wrap;html=1;" vertex="1" parent="1">
          <mxGeometry x="290" y="1430" width="120" height="60" as="geometry" />
        </mxCell>
        <mxCell id="NEipg8XcuFxu_SBBv3g5-48" style="edgeStyle=orthogonalEdgeStyle;rounded=0;orthogonalLoop=1;jettySize=auto;html=1;" edge="1" parent="1" source="NEipg8XcuFxu_SBBv3g5-43" target="NEipg8XcuFxu_SBBv3g5-47">
          <mxGeometry relative="1" as="geometry" />
        </mxCell>
        <mxCell id="NEipg8XcuFxu_SBBv3g5-43" value="展示顺序" style="whiteSpace=wrap;html=1;" vertex="1" parent="1">
          <mxGeometry x="480" y="1360" width="120" height="60" as="geometry" />
        </mxCell>
        <mxCell id="NEipg8XcuFxu_SBBv3g5-47" value="未完成优先，已完成靠后" style="text;html=1;align=center;verticalAlign=middle;resizable=0;points=[];autosize=1;strokeColor=none;" vertex="1" parent="1">
          <mxGeometry x="630" y="1380" width="150" height="20" as="geometry" />
        </mxCell>
        <mxCell id="NEipg8XcuFxu_SBBv3g5-49" value="同上，显示在基础任务下面" style="text;html=1;align=center;verticalAlign=middle;resizable=0;points=[];autosize=1;strokeColor=none;" vertex="1" parent="1">
          <mxGeometry x="470" y="1450" width="160" height="20" as="geometry" />
        </mxCell>
        <mxCell id="NEipg8XcuFxu_SBBv3g5-51" value="界面显示" style="text;html=1;align=center;verticalAlign=middle;resizable=0;points=[];autosize=1;strokeColor=none;" vertex="1" parent="1">
          <mxGeometry x="170" y="1450" width="60" height="20" as="geometry" />
        </mxCell>
        <mxCell id="NEipg8XcuFxu_SBBv3g5-57" style="edgeStyle=orthogonalEdgeStyle;rounded=0;orthogonalLoop=1;jettySize=auto;html=1;" edge="1" parent="1" source="NEipg8XcuFxu_SBBv3g5-53" target="NEipg8XcuFxu_SBBv3g5-56">
          <mxGeometry relative="1" as="geometry" />
        </mxCell>
        <mxCell id="NEipg8XcuFxu_SBBv3g5-53" value="点击&lt;br&gt;" style="whiteSpace=wrap;html=1;" vertex="1" parent="1">
          <mxGeometry x="290" y="1770" width="120" height="60" as="geometry" />
        </mxCell>
        <mxCell id="NEipg8XcuFxu_SBBv3g5-55" value="用户操作" style="text;html=1;align=center;verticalAlign=middle;resizable=0;points=[];autosize=1;strokeColor=none;" vertex="1" parent="1">
          <mxGeometry x="170" y="1790" width="60" height="20" as="geometry" />
        </mxCell>
        <mxCell id="NEipg8XcuFxu_SBBv3g5-56" value="跳转到对应界面" style="text;html=1;align=center;verticalAlign=middle;resizable=0;points=[];autosize=1;strokeColor=none;" vertex="1" parent="1">
          <mxGeometry x="520" y="1790" width="100" height="20" as="geometry" />
        </mxCell>
      </root>
    </mxGraphModel>
  </diagram>
</mxfile>
